<svg xmlns="http://www.w3.org/2000/svg" width="1024" height="1024" viewBox="0 0 1024 1024" version="1.1"><path d="M 321 399.302 C 293.701 405.599, 278.496 435.311, 290.334 459.230 L 292.752 464.116 290.335 465.700 C 280.174 472.358, 280.811 491.481, 291.507 500.872 C 295.440 504.325, 303.916 506.458, 309.685 505.446 C 318.940 503.822, 328.282 494.225, 330.105 484.468 C 330.636 481.628, 332.143 478.462, 333.940 476.415 C 337.119 472.795, 338.605 467.547, 337.593 463.516 C 337.248 462.142, 335.399 459.592, 333.483 457.848 C 329.707 454.412, 329.028 451.115, 331.571 448.571 C 333.446 446.697, 333.276 446.713, 336.379 448.127 C 339.569 449.580, 344.068 446.943, 350.386 439.916 C 355.716 433.987, 358.028 427.678, 358.182 418.638 C 358.244 414.987, 358.455 412, 358.650 412 C 360.312 412, 373.847 429.542, 374.648 432.734 C 374.961 433.980, 375.618 435, 376.108 435 C 379.256 435, 373.544 418.164, 368.329 412.072 C 361.521 404.118, 349.669 399.277, 335.089 398.495 C 329.988 398.221, 324.266 398.549, 321 399.302 M 479.586 433.972 C 470.875 434.872, 469 436.757, 469 444.611 L 469 450 451.706 450 L 434.412 450 429.005 453.250 C 424.931 455.698, 422.969 457.726, 421.049 461.471 L 418.500 466.441 418.206 505.721 C 418.045 527.324, 418.107 545, 418.344 545 C 419.580 545, 435.850 535.789, 437.765 534.004 C 439.296 532.578, 440.004 530.753, 440.013 528.211 C 440.019 526.170, 440.045 511.798, 440.069 496.274 C 440.094 480.750, 440.458 467.835, 440.878 467.575 C 441.299 467.315, 447.686 467.031, 455.071 466.943 L 468.500 466.783 468.727 479.641 C 469.154 503.775, 469.223 512.500, 468.993 513.500 C 468.867 514.050, 468.816 515.806, 468.882 517.403 C 468.983 519.895, 469.885 518.843, 475.250 509.973 C 478.688 504.290, 482.314 499.159, 483.309 498.570 C 487.750 495.942, 489.513 506.772, 486.517 518.275 C 484.903 524.472, 476.464 541.991, 471.870 548.680 C 469.060 552.773, 469 553.142, 469 566.275 C 469 581.363, 469.232 581.908, 476.500 583.895 C 481.843 585.356, 801.852 585.447, 807.100 583.989 C 814.387 581.965, 813.953 585.650, 814.241 523.431 L 814.500 467.500 856.250 467.239 L 898 466.978 898 633.991 L 898 801.004 669.250 800.752 L 440.500 800.500 440.271 687.104 C 440.145 624.737, 439.920 573.596, 439.771 573.459 C 439.622 573.322, 434.775 576.483, 429 580.484 L 418.500 587.758 418.246 696.360 L 417.991 804.962 395.746 805.231 L 373.500 805.500 373.207 812.732 C 373.045 816.709, 373.389 821.730, 373.970 823.889 C 376.549 833.466, 386.256 842.918, 396.243 845.577 C 400.686 846.760, 443.076 846.976, 670 846.974 C 910.112 846.971, 938.971 846.807, 942.959 845.418 C 956.853 840.581, 965.606 826.994, 964.809 811.500 L 964.500 805.500 941.767 805.231 L 919.034 804.963 918.767 636.231 C 918.510 473.998, 918.428 467.335, 916.632 463.227 C 914.250 457.778, 908.119 452.519, 902.499 451.104 C 899.651 450.387, 883.584 450, 856.655 450 L 815.196 450 814.521 444.185 C 814.150 440.987, 813.544 437.904, 813.173 437.335 C 810.627 433.419, 814.240 433.505, 647 433.379 C 558.725 433.312, 483.389 433.579, 479.586 433.972 M 549.241 476.929 C 528.873 486.547, 522.072 511.380, 534.739 529.880 C 541.496 539.748, 555.104 545.943, 566.991 544.563 C 579.045 543.164, 590.493 534.835, 595.620 523.734 C 598.126 518.309, 598.497 516.332, 598.479 508.500 C 598.461 500.371, 598.155 498.919, 595.317 493.500 C 591.481 486.173, 586.276 481.028, 579 477.369 C 574.450 475.081, 571.946 474.549, 564.500 474.288 C 556.259 474, 554.972 474.223, 549.241 476.929 M 638.035 482.934 C 636.696 485.436, 636.712 485.569, 638.571 487.429 C 639.926 488.783, 644.061 489, 668.571 489 L 697 489 697 485 L 697 481 668.035 481 C 640.422 481, 639.022 481.090, 638.035 482.934 M 640.239 504.690 C 639.545 504.956, 638.496 506.073, 637.909 507.170 C 637.076 508.726, 637.223 509.589, 638.575 511.083 C 640.245 512.928, 642.378 513, 695.455 513 C 737.012 513, 750.896 512.704, 751.800 511.800 C 753.607 509.993, 753.242 506.200, 751.153 505.082 C 749.295 504.088, 642.788 503.711, 640.239 504.690 M 638.043 529.919 C 636.685 532.456, 637.689 534.889, 640.360 535.535 C 641.537 535.820, 666.976 535.929, 696.891 535.777 C 747.429 535.520, 751.361 535.376, 752.386 533.750 C 753.191 532.474, 753.191 531.526, 752.386 530.250 C 751.359 528.622, 747.360 528.482, 695.181 528.242 C 640.584 527.990, 639.051 528.035, 638.043 529.919 M 271 602.262 C 271 605.614, 268.297 611.434, 259.050 628 C 253.534 637.881, 251.496 642.617, 247.621 654.554 C 242.020 671.811, 237.285 691.519, 232.401 717.904 C 229.756 732.195, 227.056 743.929, 225.887 746.222 C 224.788 748.376, 217.227 761.244, 209.085 774.819 C 191.072 804.849, 190.886 805.208, 190.820 809.972 C 190.750 815.044, 193.406 819.296, 198.410 822.121 C 201.981 824.137, 203.895 824.434, 213.500 824.465 C 229.419 824.516, 231.950 823.341, 241.496 811.473 C 245.645 806.314, 256.608 792.012, 265.857 779.691 L 282.673 757.289 290.839 736.894 C 295.330 725.677, 299.004 715.675, 299.003 714.667 C 298.999 711.948, 300.261 712.862, 305.605 719.448 C 320.329 737.592, 333 755.417, 333 757.987 C 333 759.486, 330.721 773.039, 327.936 788.106 C 320.544 828.091, 320.003 831.232, 320.001 834.173 C 320 837.265, 324 842.431, 327.993 844.496 C 333.470 847.329, 347.021 850.224, 351.592 849.538 L 355.955 848.884 358.064 842.192 C 359.224 838.511, 361.218 832.125, 362.495 828 C 376.755 781.953, 381.571 766.060, 383.707 758 C 386.190 748.629, 386.202 748.412, 384.542 742 C 383.617 738.425, 381.357 731.675, 379.521 727 C 377.685 722.325, 374.072 713.100, 371.491 706.500 C 368.911 699.900, 362.750 684.825, 357.800 673 C 337.661 624.890, 332 609.973, 332 605.018 L 332 602.367 304.250 601.123 C 288.988 600.439, 275.262 599.629, 273.750 599.323 C 271.168 598.801, 271 598.981, 271 602.262 M 138.134 884.449 C 127.659 892.244, 126 894.166, 126 898.500 C 126 902.752, 127.430 904.387, 137.217 911.331 C 142.323 914.954, 150.550 921.534, 155.500 925.953 C 160.450 930.372, 166.025 934.716, 167.889 935.607 C 174.138 938.592, 182.515 935.767, 185.044 929.821 C 186.671 925.997, 184.536 919.442, 176.148 902.499 L 169.216 888.498 159.614 882.749 C 154.333 879.587, 149.592 877, 149.078 877 C 148.563 877, 143.639 880.352, 138.134 884.449 M 306.112 887.008 C 295.666 895.709, 295.071 896.505, 295.032 901.814 C 294.993 907.072, 296.428 908.554, 310.268 917.551 C 315.640 921.043, 323.296 926.565, 327.281 929.821 C 336.693 937.512, 340.852 939.992, 344.346 939.996 C 350.132 940.004, 356 934.253, 356 928.576 C 356 925.908, 350.870 915.228, 342.273 900 L 337.475 891.500 326.487 885.753 C 320.444 882.592, 315.275 880.009, 315 880.013 C 314.725 880.017, 310.725 883.165, 306.112 887.008" stroke="none" fill="#37367a" fill-rule="evenodd"/><path d="M 0 512.001 L 0 1024.002 512.250 1023.751 L 1024.500 1023.500 1024.751 511.750 L 1025.002 0 512.501 0 L 0 0 0 512.001 M 0.496 512.500 C 0.496 794.100, 0.610 909.151, 0.750 768.168 C 0.890 627.186, 0.890 396.786, 0.750 256.168 C 0.610 115.551, 0.496 230.900, 0.496 512.500 M 321 399.302 C 293.701 405.599, 278.496 435.311, 290.334 459.230 L 292.752 464.116 290.335 465.700 C 280.174 472.358, 280.811 491.481, 291.507 500.872 C 295.440 504.325, 303.916 506.458, 309.685 505.446 C 318.940 503.822, 328.282 494.225, 330.105 484.468 C 330.636 481.628, 332.143 478.462, 333.940 476.415 C 337.119 472.795, 338.605 467.547, 337.593 463.516 C 337.248 462.142, 335.399 459.592, 333.483 457.848 C 329.707 454.412, 329.028 451.115, 331.571 448.571 C 333.446 446.697, 333.276 446.713, 336.379 448.127 C 339.569 449.580, 344.068 446.943, 350.386 439.916 C 355.716 433.987, 358.028 427.678, 358.182 418.638 C 358.244 414.987, 358.455 412, 358.650 412 C 360.312 412, 373.847 429.542, 374.648 432.734 C 374.961 433.980, 375.618 435, 376.108 435 C 379.256 435, 373.544 418.164, 368.329 412.072 C 361.521 404.118, 349.669 399.277, 335.089 398.495 C 329.988 398.221, 324.266 398.549, 321 399.302 M 479.586 433.972 C 470.875 434.872, 469 436.757, 469 444.611 L 469 450 451.706 450 L 434.412 450 429.005 453.250 C 424.931 455.698, 422.969 457.726, 421.049 461.471 L 418.500 466.441 418.206 505.721 C 418.045 527.324, 418.107 545, 418.344 545 C 419.580 545, 435.850 535.789, 437.765 534.004 C 439.296 532.578, 440.004 530.753, 440.013 528.211 C 440.019 526.170, 440.045 511.798, 440.069 496.274 C 440.094 480.750, 440.458 467.835, 440.878 467.575 C 441.299 467.315, 447.686 467.031, 455.071 466.943 L 468.500 466.783 468.727 479.641 C 469.154 503.775, 469.223 512.500, 468.993 513.500 C 468.867 514.050, 468.816 515.806, 468.882 517.403 C 468.983 519.895, 469.885 518.843, 475.250 509.973 C 478.688 504.290, 482.314 499.159, 483.309 498.570 C 487.750 495.942, 489.513 506.772, 486.517 518.275 C 484.903 524.472, 476.464 541.991, 471.870 548.680 C 469.060 552.773, 469 553.142, 469 566.275 C 469 581.363, 469.232 581.908, 476.500 583.895 C 481.843 585.356, 801.852 585.447, 807.100 583.989 C 814.387 581.965, 813.953 585.650, 814.241 523.431 L 814.500 467.500 856.250 467.239 L 898 466.978 898 633.991 L 898 801.004 669.250 800.752 L 440.500 800.500 440.271 687.104 C 440.145 624.737, 439.920 573.596, 439.771 573.459 C 439.622 573.322, 434.775 576.483, 429 580.484 L 418.500 587.758 418.246 696.360 L 417.991 804.962 395.746 805.231 L 373.500 805.500 373.207 812.732 C 373.045 816.709, 373.389 821.730, 373.970 823.889 C 376.549 833.466, 386.256 842.918, 396.243 845.577 C 400.686 846.760, 443.076 846.976, 670 846.974 C 910.112 846.971, 938.971 846.807, 942.959 845.418 C 956.853 840.581, 965.606 826.994, 964.809 811.500 L 964.500 805.500 941.767 805.231 L 919.034 804.963 918.767 636.231 C 918.510 473.998, 918.428 467.335, 916.632 463.227 C 914.250 457.778, 908.119 452.519, 902.499 451.104 C 899.651 450.387, 883.584 450, 856.655 450 L 815.196 450 814.521 444.185 C 814.150 440.987, 813.544 437.904, 813.173 437.335 C 810.627 433.419, 814.240 433.505, 647 433.379 C 558.725 433.312, 483.389 433.579, 479.586 433.972 M 549.241 476.929 C 528.873 486.547, 522.072 511.380, 534.739 529.880 C 541.496 539.748, 555.104 545.943, 566.991 544.563 C 579.045 543.164, 590.493 534.835, 595.620 523.734 C 598.126 518.309, 598.497 516.332, 598.479 508.500 C 598.461 500.371, 598.155 498.919, 595.317 493.500 C 591.481 486.173, 586.276 481.028, 579 477.369 C 574.450 475.081, 571.946 474.549, 564.500 474.288 C 556.259 474, 554.972 474.223, 549.241 476.929 M 638.035 482.934 C 636.696 485.436, 636.712 485.569, 638.571 487.429 C 639.926 488.783, 644.061 489, 668.571 489 L 697 489 697 485 L 697 481 668.035 481 C 640.422 481, 639.022 481.090, 638.035 482.934 M 640.239 504.690 C 639.545 504.956, 638.496 506.073, 637.909 507.170 C 637.076 508.726, 637.223 509.589, 638.575 511.083 C 640.245 512.928, 642.378 513, 695.455 513 C 737.012 513, 750.896 512.704, 751.800 511.800 C 753.607 509.993, 753.242 506.200, 751.153 505.082 C 749.295 504.088, 642.788 503.711, 640.239 504.690 M 638.043 529.919 C 636.685 532.456, 637.689 534.889, 640.360 535.535 C 641.537 535.820, 666.976 535.929, 696.891 535.777 C 747.429 535.520, 751.361 535.376, 752.386 533.750 C 753.191 532.474, 753.191 531.526, 752.386 530.250 C 751.359 528.622, 747.360 528.482, 695.181 528.242 C 640.584 527.990, 639.051 528.035, 638.043 529.919 M 271 602.262 C 271 605.614, 268.297 611.434, 259.050 628 C 253.534 637.881, 251.496 642.617, 247.621 654.554 C 242.020 671.811, 237.285 691.519, 232.401 717.904 C 229.756 732.195, 227.056 743.929, 225.887 746.222 C 224.788 748.376, 217.227 761.244, 209.085 774.819 C 191.072 804.849, 190.886 805.208, 190.820 809.972 C 190.750 815.044, 193.406 819.296, 198.410 822.121 C 201.981 824.137, 203.895 824.434, 213.500 824.465 C 229.419 824.516, 231.950 823.341, 241.496 811.473 C 245.645 806.314, 256.608 792.012, 265.857 779.691 L 282.673 757.289 290.839 736.894 C 295.330 725.677, 299.004 715.675, 299.003 714.667 C 298.999 711.948, 300.261 712.862, 305.605 719.448 C 320.329 737.592, 333 755.417, 333 757.987 C 333 759.486, 330.721 773.039, 327.936 788.106 C 320.544 828.091, 320.003 831.232, 320.001 834.173 C 320 837.265, 324 842.431, 327.993 844.496 C 333.470 847.329, 347.021 850.224, 351.592 849.538 L 355.955 848.884 358.064 842.192 C 359.224 838.511, 361.218 832.125, 362.495 828 C 376.755 781.953, 381.571 766.060, 383.707 758 C 386.190 748.629, 386.202 748.412, 384.542 742 C 383.617 738.425, 381.357 731.675, 379.521 727 C 377.685 722.325, 374.072 713.100, 371.491 706.500 C 368.911 699.900, 362.750 684.825, 357.800 673 C 337.661 624.890, 332 609.973, 332 605.018 L 332 602.367 304.250 601.123 C 288.988 600.439, 275.262 599.629, 273.750 599.323 C 271.168 598.801, 271 598.981, 271 602.262 M 138.134 884.449 C 127.659 892.244, 126 894.166, 126 898.500 C 126 902.752, 127.430 904.387, 137.217 911.331 C 142.323 914.954, 150.550 921.534, 155.500 925.953 C 160.450 930.372, 166.025 934.716, 167.889 935.607 C 174.138 938.592, 182.515 935.767, 185.044 929.821 C 186.671 925.997, 184.536 919.442, 176.148 902.499 L 169.216 888.498 159.614 882.749 C 154.333 879.587, 149.592 877, 149.078 877 C 148.563 877, 143.639 880.352, 138.134 884.449 M 306.112 887.008 C 295.666 895.709, 295.071 896.505, 295.032 901.814 C 294.993 907.072, 296.428 908.554, 310.268 917.551 C 315.640 921.043, 323.296 926.565, 327.281 929.821 C 336.693 937.512, 340.852 939.992, 344.346 939.996 C 350.132 940.004, 356 934.253, 356 928.576 C 356 925.908, 350.870 915.228, 342.273 900 L 337.475 891.500 326.487 885.753 C 320.444 882.592, 315.275 880.009, 315 880.013 C 314.725 880.017, 310.725 883.165, 306.112 887.008" stroke="none" fill="#fbfafa" fill-rule="evenodd"/></svg>